# xmcd
#
# Track frame offsets:
#   150
#   18576
#   39796
#   58494
#   75858
#   87656
#   101559
#   111000
#   126088
#   139389
#   150775
#   168742
#
# Disc length: 2401 seconds
#
# Revision: 0
# Processed by: cddbd v1.5.2PL0 Copyright (c) Steve Scherf et al.
# Submitted via: GXTranscoder 2.0.1939
#
DISCID=95095f0c
DTITLE=Georges Moustaki - Le Meteque - Best of
DYEAR=2005
DGENRE=UnClassifiable
TTITLE0=Le Facteur
TTITLE1=Un Jour Tu es Parti
TTITLE2=Le Temps de Vivre
TTITLE3=Pourtant Dans le Monde
TTITLE4=Ma Liberte
TTITLE5=Il est Trop Tard
TTITLE6=Joseph
TTITLE7=Ma Solitude
TTITLE8=Votre Fille a 20 Ans
TTITLE9=Le Meteque
TTITLE10=Il y avait un Jardin
TTITLE11=La Marche de Sacco et Venzetti
EXTD=
EXTT0=
EXTT1=
EXTT2=
EXTT3=
EXTT4=
EXTT5=
EXTT6=
EXTT7=
EXTT8=
EXTT9=
EXTT10=
EXTT11=
PLAYORDER=
